<mxfile host="app.diagrams.net" modified="2022-08-31T02:16:47.999Z" agent="5.0 (Windows NT 10.0; Win64; x64) AppleWebKit/537.36 (KHTML, like Gecko) Chrome/104.0.0.0 Safari/537.36" etag="c08uTBXGJCpKEPQdl8gG" version="20.2.7" type="github">
  <diagram id="C5RBs43oDa-KdzZeNtuy" name="Page-1">
    <mxGraphModel dx="1422" dy="705" grid="1" gridSize="10" guides="1" tooltips="1" connect="1" arrows="1" fold="1" page="1" pageScale="1" pageWidth="1169" pageHeight="1654" math="0" shadow="0">
      <root>
        <mxCell id="WIyWlLk6GJQsqaUBKTNV-0" />
        <mxCell id="WIyWlLk6GJQsqaUBKTNV-1" parent="WIyWlLk6GJQsqaUBKTNV-0" />
        <mxCell id="kcyVbWiBj3wH5_LdSBAH-0" value="NPC" style="swimlane;fontStyle=1;align=center;verticalAlign=top;childLayout=stackLayout;horizontal=1;startSize=26;horizontalStack=0;resizeParent=1;resizeParentMax=0;resizeLast=0;collapsible=1;marginBottom=0;" parent="WIyWlLk6GJQsqaUBKTNV-1" vertex="1">
          <mxGeometry x="360" y="200" width="280" height="170" as="geometry" />
        </mxCell>
        <mxCell id="kcyVbWiBj3wH5_LdSBAH-1" value="- MAX_NAME_LENGTH : int&#xa;- name : String&#xa;- npcType : NPC_Type&#xa;- cost : int&#xa;- helper : boolean&#xa;- npcModifier : NPC_Modifier " style="text;strokeColor=none;fillColor=none;align=left;verticalAlign=top;spacingLeft=4;spacingRight=4;overflow=hidden;rotatable=0;points=[[0,0.5],[1,0.5]];portConstraint=eastwest;" parent="kcyVbWiBj3wH5_LdSBAH-0" vertex="1">
          <mxGeometry y="26" width="280" height="94" as="geometry" />
        </mxCell>
        <mxCell id="kcyVbWiBj3wH5_LdSBAH-2" value="" style="line;strokeWidth=1;fillColor=none;align=left;verticalAlign=middle;spacingTop=-1;spacingLeft=3;spacingRight=3;rotatable=0;labelPosition=right;points=[];portConstraint=eastwest;" parent="kcyVbWiBj3wH5_LdSBAH-0" vertex="1">
          <mxGeometry y="120" width="280" height="8" as="geometry" />
        </mxCell>
        <mxCell id="kcyVbWiBj3wH5_LdSBAH-3" value="+ NPC(builder : Builder)&#xa;+ toString() : String" style="text;strokeColor=none;fillColor=none;align=left;verticalAlign=top;spacingLeft=4;spacingRight=4;overflow=hidden;rotatable=0;points=[[0,0.5],[1,0.5]];portConstraint=eastwest;" parent="kcyVbWiBj3wH5_LdSBAH-0" vertex="1">
          <mxGeometry y="128" width="280" height="42" as="geometry" />
        </mxCell>
        <mxCell id="kcyVbWiBj3wH5_LdSBAH-4" value="Builder" style="swimlane;fontStyle=1;align=center;verticalAlign=top;childLayout=stackLayout;horizontal=1;startSize=26;horizontalStack=0;resizeParent=1;resizeParentMax=0;resizeLast=0;collapsible=1;marginBottom=0;" parent="WIyWlLk6GJQsqaUBKTNV-1" vertex="1">
          <mxGeometry x="755" y="200" width="310" height="220" as="geometry" />
        </mxCell>
        <mxCell id="kcyVbWiBj3wH5_LdSBAH-5" value="- MAX_NAME_LENGTH : int&#xa;- name : String&#xa;- npcType : NPC_Type&#xa;- cost : int&#xa;- helper : boolean&#xa;- npcModifier : NPC_Modifier " style="text;strokeColor=none;fillColor=none;align=left;verticalAlign=top;spacingLeft=4;spacingRight=4;overflow=hidden;rotatable=0;points=[[0,0.5],[1,0.5]];portConstraint=eastwest;" parent="kcyVbWiBj3wH5_LdSBAH-4" vertex="1">
          <mxGeometry y="26" width="310" height="94" as="geometry" />
        </mxCell>
        <mxCell id="kcyVbWiBj3wH5_LdSBAH-6" value="" style="line;strokeWidth=1;fillColor=none;align=left;verticalAlign=middle;spacingTop=-1;spacingLeft=3;spacingRight=3;rotatable=0;labelPosition=right;points=[];portConstraint=eastwest;" parent="kcyVbWiBj3wH5_LdSBAH-4" vertex="1">
          <mxGeometry y="120" width="310" height="8" as="geometry" />
        </mxCell>
        <mxCell id="kcyVbWiBj3wH5_LdSBAH-7" value="+ Builder(name : String, npcType : NPC_Type)&#xa;+ toString() : String&#xa;+ setCost(cost : int) : Builder&#xa;+ setHelper(helper : boolean) : Builder&#xa;+ setNpcModifier(npcModifier : NPC_Modifier) : Builder&#xa;+ build() : NPC" style="text;strokeColor=none;fillColor=none;align=left;verticalAlign=top;spacingLeft=4;spacingRight=4;overflow=hidden;rotatable=0;points=[[0,0.5],[1,0.5]];portConstraint=eastwest;" parent="kcyVbWiBj3wH5_LdSBAH-4" vertex="1">
          <mxGeometry y="128" width="310" height="92" as="geometry" />
        </mxCell>
        <mxCell id="kcyVbWiBj3wH5_LdSBAH-8" value="" style="endArrow=open;startArrow=circlePlus;endFill=0;startFill=0;endSize=8;html=1;rounded=0;exitX=1;exitY=0.5;exitDx=0;exitDy=0;entryX=0;entryY=0.5;entryDx=0;entryDy=0;" parent="WIyWlLk6GJQsqaUBKTNV-1" source="kcyVbWiBj3wH5_LdSBAH-1" target="kcyVbWiBj3wH5_LdSBAH-5" edge="1">
          <mxGeometry width="160" relative="1" as="geometry">
            <mxPoint x="505" y="560" as="sourcePoint" />
            <mxPoint x="665" y="560" as="targetPoint" />
          </mxGeometry>
        </mxCell>
        <mxCell id="kcyVbWiBj3wH5_LdSBAH-11" value="return" style="html=1;verticalAlign=bottom;endArrow=open;dashed=1;endSize=8;rounded=0;exitX=0.484;exitY=1.011;exitDx=0;exitDy=0;exitPerimeter=0;fontSize=12;fontStyle=1" parent="WIyWlLk6GJQsqaUBKTNV-1" source="kcyVbWiBj3wH5_LdSBAH-7" target="kcyVbWiBj3wH5_LdSBAH-12" edge="1">
          <mxGeometry x="0.0088" relative="1" as="geometry">
            <mxPoint x="795" y="500" as="sourcePoint" />
            <mxPoint x="905" y="610" as="targetPoint" />
            <Array as="points" />
            <mxPoint as="offset" />
          </mxGeometry>
        </mxCell>
        <mxCell id="kcyVbWiBj3wH5_LdSBAH-12" value="&lt;b&gt;NPC&lt;/b&gt;" style="html=1;fontSize=12;" parent="WIyWlLk6GJQsqaUBKTNV-1" vertex="1">
          <mxGeometry x="851" y="530" width="110" height="50" as="geometry" />
        </mxCell>
        <mxCell id="kcyVbWiBj3wH5_LdSBAH-13" value="&lt;span style=&quot;font-weight: normal;&quot;&gt;&lt;font style=&quot;font-size: 12px;&quot;&gt;&amp;lt;&amp;lt;enum&amp;gt;&amp;gt;&lt;/font&gt;&lt;/span&gt;&lt;br&gt;NPC_Type" style="swimlane;fontStyle=1;align=center;verticalAlign=top;childLayout=stackLayout;horizontal=1;startSize=40;horizontalStack=0;resizeParent=1;resizeParentMax=0;resizeLast=0;collapsible=1;marginBottom=0;html=1;" parent="WIyWlLk6GJQsqaUBKTNV-1" vertex="1">
          <mxGeometry x="40" y="120" width="200" height="108" as="geometry" />
        </mxCell>
        <mxCell id="kcyVbWiBj3wH5_LdSBAH-14" value="+ MERCHANT : NPC_Type&#xa;+ HELPER : NPC_Type&#xa;+ QUEST : NPC_Type" style="text;strokeColor=none;fillColor=none;align=left;verticalAlign=top;spacingLeft=4;spacingRight=4;overflow=hidden;rotatable=0;points=[[0,0.5],[1,0.5]];portConstraint=eastwest;" parent="kcyVbWiBj3wH5_LdSBAH-13" vertex="1">
          <mxGeometry y="40" width="200" height="60" as="geometry" />
        </mxCell>
        <mxCell id="kcyVbWiBj3wH5_LdSBAH-15" value="" style="line;strokeWidth=1;fillColor=none;align=left;verticalAlign=middle;spacingTop=-1;spacingLeft=3;spacingRight=3;rotatable=0;labelPosition=right;points=[];portConstraint=eastwest;" parent="kcyVbWiBj3wH5_LdSBAH-13" vertex="1">
          <mxGeometry y="100" width="200" height="8" as="geometry" />
        </mxCell>
        <mxCell id="kcyVbWiBj3wH5_LdSBAH-17" value="&lt;span style=&quot;font-weight: normal;&quot;&gt;&lt;font style=&quot;font-size: 12px;&quot;&gt;&amp;lt;&amp;lt;enum&amp;gt;&amp;gt;&lt;/font&gt;&lt;/span&gt;&lt;br&gt;NPC_Modifier" style="swimlane;fontStyle=1;align=center;verticalAlign=top;childLayout=stackLayout;horizontal=1;startSize=40;horizontalStack=0;resizeParent=1;resizeParentMax=0;resizeLast=0;collapsible=1;marginBottom=0;html=1;" parent="WIyWlLk6GJQsqaUBKTNV-1" vertex="1">
          <mxGeometry x="40" y="320" width="200" height="108" as="geometry" />
        </mxCell>
        <mxCell id="kcyVbWiBj3wH5_LdSBAH-18" value="+ FRIENLDY : NPC_Modifier&#xa;+ NEUTRAL : NPC_Modifier&#xa;+ HOSTILE : NPC_Modifier" style="text;strokeColor=none;fillColor=none;align=left;verticalAlign=top;spacingLeft=4;spacingRight=4;overflow=hidden;rotatable=0;points=[[0,0.5],[1,0.5]];portConstraint=eastwest;" parent="kcyVbWiBj3wH5_LdSBAH-17" vertex="1">
          <mxGeometry y="40" width="200" height="60" as="geometry" />
        </mxCell>
        <mxCell id="kcyVbWiBj3wH5_LdSBAH-19" value="" style="line;strokeWidth=1;fillColor=none;align=left;verticalAlign=middle;spacingTop=-1;spacingLeft=3;spacingRight=3;rotatable=0;labelPosition=right;points=[];portConstraint=eastwest;" parent="kcyVbWiBj3wH5_LdSBAH-17" vertex="1">
          <mxGeometry y="100" width="200" height="8" as="geometry" />
        </mxCell>
        <mxCell id="kcyVbWiBj3wH5_LdSBAH-20" value="1" style="endArrow=open;html=1;endSize=12;startArrow=diamondThin;startSize=14;startFill=0;edgeStyle=orthogonalEdgeStyle;align=left;verticalAlign=bottom;rounded=0;fontSize=12;exitX=0;exitY=0.5;exitDx=0;exitDy=0;entryX=1;entryY=0.5;entryDx=0;entryDy=0;" parent="WIyWlLk6GJQsqaUBKTNV-1" source="kcyVbWiBj3wH5_LdSBAH-1" target="kcyVbWiBj3wH5_LdSBAH-14" edge="1">
          <mxGeometry x="-0.8029" y="27" relative="1" as="geometry">
            <mxPoint x="640" y="480" as="sourcePoint" />
            <mxPoint x="310" y="480" as="targetPoint" />
            <mxPoint as="offset" />
          </mxGeometry>
        </mxCell>
        <mxCell id="kcyVbWiBj3wH5_LdSBAH-21" value="1" style="endArrow=open;html=1;endSize=12;startArrow=diamondThin;startSize=14;startFill=0;edgeStyle=orthogonalEdgeStyle;align=left;verticalAlign=bottom;rounded=0;fontSize=12;exitX=0;exitY=0.5;exitDx=0;exitDy=0;entryX=1;entryY=0.5;entryDx=0;entryDy=0;" parent="WIyWlLk6GJQsqaUBKTNV-1" source="kcyVbWiBj3wH5_LdSBAH-3" target="kcyVbWiBj3wH5_LdSBAH-18" edge="1">
          <mxGeometry x="-0.7516" y="21" relative="1" as="geometry">
            <mxPoint x="370" y="283" as="sourcePoint" />
            <mxPoint x="250" y="200" as="targetPoint" />
            <mxPoint as="offset" />
          </mxGeometry>
        </mxCell>
        <mxCell id="TZiWQcPEaI20O53GkbJN-1" style="edgeStyle=orthogonalEdgeStyle;rounded=0;orthogonalLoop=1;jettySize=auto;html=1;entryX=0;entryY=0.5;entryDx=0;entryDy=0;" edge="1" parent="WIyWlLk6GJQsqaUBKTNV-1" source="TZiWQcPEaI20O53GkbJN-0" target="kcyVbWiBj3wH5_LdSBAH-12">
          <mxGeometry relative="1" as="geometry" />
        </mxCell>
        <mxCell id="TZiWQcPEaI20O53GkbJN-0" value="Client" style="shape=umlActor;verticalLabelPosition=bottom;verticalAlign=top;html=1;outlineConnect=0;" vertex="1" parent="WIyWlLk6GJQsqaUBKTNV-1">
          <mxGeometry x="510" y="500" width="30" height="60" as="geometry" />
        </mxCell>
      </root>
    </mxGraphModel>
  </diagram>
</mxfile>
